<svg width="105" height="30" fill="none" xmlns="http://www.w3.org/2000/svg"><path opacity=".1" d="M104.813 26.995A2.998 2.998 0 01101.824 30H3.813a3 3 0 01-3-3.005V3.016a3.01 3.01 0 013-3.016h98c1.655 0 3 1.352 3 3.005v23.99z" fill="#fff"/><path d="M24.399 15.295c-.023-2.473 2.011-3.675 2.115-3.733-1.15-1.687-2.943-1.918-3.575-1.941-1.506-.162-2.965.901-3.724.901-.782 0-1.954-.89-3.23-.867-1.632.023-3.16.983-4 2.45-1.736 3.016-.437 7.442 1.219 9.87.827 1.19 1.804 2.519 3.068 2.472 1.242-.046 1.702-.797 3.207-.797 1.483 0 1.92.797 3.219.763 1.333-.023 2.172-1.202 2.977-2.404.954-1.364 1.345-2.716 1.356-2.785-.046.011-2.61-.97-2.632-3.93zm-2.437-7.28c.667-.844 1.127-1.977 1-3.144-.965.046-2.172.67-2.873 1.49-.621.729-1.161 1.908-1.023 3.029 1.08.08 2.195-.555 2.896-1.376zM42.387 23.397H40.65l-.954-3.004h-3.299l-.908 3.004H33.8l3.277-10.215H39.1l3.287 10.215zm-2.977-4.264l-.862-2.67c-.092-.277-.265-.913-.517-1.93h-.035c-.103.44-.264 1.075-.483 1.93l-.85 2.67h2.747zm11.38.485c0 1.248-.334 2.242-1.012 2.97-.61.647-1.357.971-2.265.971-.965 0-1.666-.347-2.092-1.04v3.871H43.79v-7.939c0-.786-.023-1.595-.057-2.427h1.437l.091 1.168h.035c.54-.879 1.368-1.318 2.471-1.318.862 0 1.586.347 2.161 1.029.563.693.862 1.594.862 2.715zm-1.667.058c0-.716-.161-1.306-.483-1.78-.357-.485-.828-.728-1.414-.728-.402 0-.77.14-1.092.405-.322.266-.54.624-.644 1.052a2.493 2.493 0 00-.08.496v1.225c0 .532.16.983.494 1.352.322.37.747.555 1.276.555.61 0 1.092-.243 1.437-.716.333-.451.506-1.075.506-1.86zm10.092-.058c0 1.248-.334 2.242-1.012 2.97-.61.647-1.356.971-2.264.971-.966 0-1.667-.347-2.092-1.04v3.871h-1.633v-7.939c0-.786-.023-1.595-.057-2.427h1.437l.092 1.168h.034c.54-.879 1.368-1.318 2.471-1.318.862 0 1.587.347 2.161 1.029.575.693.863 1.594.863 2.715zm-1.656.058c0-.716-.16-1.306-.482-1.78-.357-.485-.828-.728-1.414-.728-.403 0-.77.14-1.092.405-.322.266-.54.624-.644 1.052-.046.207-.08.37-.08.496v1.225c0 .532.16.983.494 1.352.322.37.747.555 1.276.555.609 0 1.092-.243 1.437-.716.333-.451.505-1.075.505-1.86zm11.08.855c0 .867-.298 1.572-.907 2.127-.667.6-1.587.89-2.77.89-1.092 0-1.966-.209-2.633-.636l.38-1.364a4.48 4.48 0 002.356.636c.61 0 1.092-.139 1.437-.416.345-.278.517-.647.517-1.11 0-.416-.138-.762-.425-1.051-.288-.278-.747-.543-1.402-.786-1.782-.67-2.667-1.641-2.667-2.924 0-.843.31-1.525.942-2.057.633-.531 1.46-.809 2.495-.809.92 0 1.7.162 2.31.486l-.414 1.329a4.042 4.042 0 00-1.954-.474c-.575 0-1.023.138-1.345.427a1.217 1.217 0 00-.413.925c0 .404.16.74.47 1.005.277.243.76.509 1.484.786.873.358 1.517.763 1.93 1.248.403.462.61 1.063.61 1.768zm5.403-3.282H72.25v3.583c0 .913.322 1.363.954 1.363.287 0 .529-.023.724-.08l.046 1.248c-.322.115-.747.184-1.264.184-.644 0-1.15-.196-1.506-.589-.356-.393-.54-1.052-.54-1.988v-3.71h-1.07v-1.224h1.07v-1.352l1.597-.486v1.838h1.794l-.012 1.213zm8.08 2.404c0 1.133-.321 2.057-.965 2.785-.678.751-1.563 1.121-2.69 1.121-1.08 0-1.93-.358-2.574-1.075-.644-.716-.954-1.618-.954-2.716 0-1.143.333-2.08.988-2.808.655-.728 1.552-1.086 2.667-1.086 1.08 0 1.942.358 2.598 1.075.62.693.93 1.595.93 2.704zm-1.69.035c0-.67-.149-1.26-.436-1.734-.345-.59-.828-.878-1.46-.878-.655 0-1.15.289-1.494.878-.287.486-.437 1.075-.437 1.768 0 .67.15 1.26.437 1.734.356.59.84.878 1.483.878.62 0 1.115-.3 1.46-.89.298-.497.448-1.086.448-1.756zm6.99-2.22a2.615 2.615 0 00-.518-.045c-.575 0-1.011.22-1.333.647-.276.381-.403.866-.403 1.456v3.871h-1.632v-5.05c0-.774-.011-1.548-.046-2.323h1.414l.07 1.41h.045c.172-.485.448-.878.816-1.167a1.962 1.962 0 011.173-.393c.149 0 .287.012.402.035l.011 1.56zm7.287 1.896c0 .254-.012.497-.058.74h-4.885c.023.728.253 1.282.713 1.664.414.346.942.52 1.597.52.725 0 1.38-.116 1.978-.347l.252 1.133c-.69.3-1.517.45-2.46.45-1.137 0-2.034-.335-2.678-1.005-.643-.67-.977-1.572-.977-2.704 0-1.11.3-2.034.909-2.774.632-.786 1.482-1.178 2.563-1.178 1.057 0 1.862.392 2.402 1.178.425.624.644 1.399.644 2.323zm-1.552-.428c.011-.485-.092-.9-.322-1.26-.287-.45-.712-.681-1.299-.681-.528 0-.965.22-1.299.67a2.381 2.381 0 00-.482 1.271h3.402zM35.928 10.466c-.448 0-.85-.023-1.172-.058V5.462c.46-.07.92-.104 1.379-.104 1.873 0 2.724.925 2.724 2.427 0 1.733-1.012 2.681-2.931 2.681zm.264-4.472c-.252 0-.47.011-.643.058v3.755c.092.012.276.024.54.024 1.218 0 1.92-.705 1.92-2.011.01-1.179-.621-1.826-1.817-1.826zm5.345 4.507c-1.057 0-1.736-.786-1.736-1.86 0-1.122.702-1.92 1.794-1.92 1.034 0 1.735.752 1.735 1.861 0 1.121-.712 1.919-1.793 1.919zm.035-3.19c-.575 0-.954.543-.954 1.306 0 .751.379 1.294.942 1.294s.943-.577.943-1.305c0-.74-.368-1.295-.931-1.295zm7.77-.52l-1.127 3.617h-.735l-.472-1.571a10.164 10.164 0 01-.287-1.168h-.011c-.058.393-.173.786-.288 1.168l-.494 1.571h-.747l-1.058-3.617h.828l.402 1.722c.092.405.173.797.242 1.167h.011c.058-.3.15-.682.299-1.155l.517-1.734h.655l.495 1.687c.115.405.218.81.287 1.19h.023c.057-.37.138-.762.241-1.19l.437-1.687h.782zm4.15 3.629h-.805V8.34c0-.636-.242-.96-.725-.96-.47 0-.804.405-.804.89v2.15h-.805V7.83c0-.323-.011-.658-.034-1.04h.7l.035.555h.023a1.312 1.312 0 011.138-.636c.759 0 1.253.578 1.253 1.526l.023 2.184zm2.206 0h-.804V5.139h.804v5.28zm2.92.08c-1.058 0-1.736-.785-1.736-1.86 0-1.12.701-1.918 1.793-1.918 1.035 0 1.736.751 1.736 1.86 0 1.121-.724 1.919-1.793 1.919zm.023-3.189c-.575 0-.954.543-.954 1.306 0 .751.379 1.294.942 1.294s.943-.577.943-1.305c0-.74-.368-1.295-.931-1.295zm4.92 3.109l-.058-.416h-.023c-.242.335-.598.497-1.058.497-.643 0-1.103-.45-1.103-1.063 0-.89.77-1.352 2.103-1.352v-.07c0-.474-.253-.716-.747-.716-.356 0-.667.092-.942.265l-.161-.531c.333-.208.747-.312 1.241-.312.942 0 1.414.497 1.414 1.502v1.33c0 .369.011.646.057.866h-.724zm-.104-1.803c-.885 0-1.334.22-1.334.728 0 .381.23.566.552.566.402 0 .782-.312.782-.74v-.554zm4.666 1.803l-.034-.578h-.023c-.23.44-.62.659-1.161.659-.874 0-1.517-.763-1.517-1.85 0-1.132.666-1.93 1.574-1.93.483 0 .828.163 1.012.498h.011v-2.08h.805v4.31c0 .347.011.682.034.97h-.7zm-.115-2.138c0-.508-.333-.936-.839-.936-.597 0-.954.532-.954 1.271 0 .728.38 1.225.943 1.225.506 0 .862-.44.862-.96l-.012-.6zm5.874 2.219c-1.058 0-1.736-.786-1.736-1.86 0-1.122.701-1.92 1.793-1.92 1.035 0 1.736.752 1.736 1.861.012 1.121-.713 1.919-1.793 1.919zm.034-3.19c-.574 0-.942.543-.942 1.306 0 .751.38 1.294.942 1.294.564 0 .943-.577.943-1.305-.011-.74-.38-1.295-.942-1.295zm6.07 3.109h-.805V8.34c0-.636-.242-.96-.724-.96-.472 0-.805.405-.805.89v2.15h-.805V7.83c0-.323-.011-.658-.034-1.04h.701l.035.555h.023a1.312 1.312 0 011.138-.636c.758 0 1.252.578 1.252 1.526v2.184h.023zm5.39-3.016h-.885V9.16c0 .45.15.67.471.67.138 0 .265-.011.357-.034l.023.612c-.15.058-.368.093-.62.093-.633 0-1.012-.347-1.012-1.271V7.404h-.53v-.601h.53v-.659l.781-.243v.902h.885v.6zm4.23 3.016h-.804V8.35c0-.647-.242-.97-.725-.97-.413 0-.804.288-.804.855v2.184h-.805V5.139h.805V7.31h.011a1.22 1.22 0 011.08-.59c.76 0 1.23.602 1.23 1.538v2.16h.012zm4.345-1.618h-2.402c.011.682.47 1.075 1.138 1.075.356 0 .678-.058.965-.174l.126.555c-.344.15-.747.22-1.206.22-1.127 0-1.794-.717-1.794-1.826 0-1.11.679-1.942 1.702-1.942.92 0 1.494.682 1.494 1.722.011.127 0 .243-.023.37zm-.736-.578c0-.555-.276-.959-.793-.959-.46 0-.827.404-.873.96h1.666z" fill="#fff"/></svg>