<svg fill="none" height="34" viewBox="0 0 154 34" width="154" xmlns="http://www.w3.org/2000/svg"><g fill="#fff"><g clip-rule="evenodd" fill-rule="evenodd"><path d="m30.7097 10.7538v12.4924c0 1.6105-.8608 3.0986-2.258 3.9037l-10.8387 6.2463c-1.3972.8051-3.119.8051-4.5162 0l-10.83874-6.2463c-1.397516-.8051-2.25806-2.2933-2.25806-3.9037v-12.4924c0-1.61044.860544-3.09862 2.25806-3.90367l10.83874-6.246312c1.3972-.805091 3.119-.805091 4.5162 0l10.8387 6.246312c1.3972.80505 2.258 2.29323 2.258 3.90367zm-14.1508-3.53505h-1.2546c-.9058 0-1.64.73279-1.64 1.63661v14.17474c0 .9226.749 1.6702 1.6733 1.6702.9239 0 1.6729-.7476 1.6729-1.6702v-15.36089c0-.24878-.202-.45046-.4516-.45046zm4.5729 4.76565h1.255c.2495 0 .4516.202.4516.4508v10.5905c0 .9225-.749 1.6701-1.6733 1.6701-.9239 0-1.6729-.7476-1.6729-1.6701v-9.4044c0-.9041.7341-1.6369 1.6396-1.6369zm-10.3739 6.0312h-1.25493c-.90554 0-1.63969.7328-1.63969 1.6369v3.4101c0 .9225.74905 1.6701 1.67298 1.6701.92424 0 1.67324-.7476 1.67324-1.6701v-4.5962c0-.2491-.202-.4508-.4516-.4508z"/><path d="m55.8159 21.4723c0 2.3024-.4325 3.5176-1.5 4.4445-1.0991.928-2.8999 1.5031-5.5001 1.5031-2.5675 0-4.0994-.4474-5.1669-1.3426-1.3657-1.152-1.9653-3.1015-1.9653-6.0753v-1.3112c0-2.9421.5996-4.6376 1.9006-5.8833 1.1641-1.1201 2.7665-1.6321 5.0326-1.6321 1.2653 0 2.3989.3208 3.167.8003h.065v-5.69105c0-.64087.199-.80027.9329-.80027h2.1022c.7319 0 .932.1594.932.80027zm-3.9679-4.3851c0-1.2784-.2663-1.8232-.6649-2.1736-.4676-.4171-1.1345-.6714-2.2339-.6714-1.1664 0-1.9006.3514-2.4001.9258-.6999.8003-.8343 1.8232-.8343 3.6146v.9912c0 2.0458.2005 3.0373.8012 3.7413.4987.5755 1.1653.8309 2.2989.8309 1.3007 0 1.9337-.2237 2.4001-.7032.4665-.4803.633-1.2795.633-2.3666z"/><path d="m69.3478 25.7933c-.6341 1.0557-1.6673 1.6309-3.6671 1.6309h-1.2335c-1.7335 0-2.7667-.2882-3.6668-1.0229-.9663-.8002-1.4327-2.0469-1.4327-3.5818v-.7349c0-1.7269.4322-2.9421 1.3999-3.7106 1.0332-.8307 2.6002-1.1824 4.8672-1.1824h1.2006c.5999 0 1.2984.0318 1.8664.0646v-.8635c0-.832-.1682-1.3112-.568-1.6312-.4653-.3514-1.0994-.4474-2.2986-.4474-1.202 0-2.7679.2237-4.0993.608-.5349.1594-.7339-.0646-.8343-.512l-.3005-1.5032c-.1317-.5426-.0659-.7992.4998-.9586 1.2337-.3843 3.2672-.7686 5.0337-.7686 2.3659 0 3.6666.2883 4.8002 1.024 1.1995.7992 1.7321 1.9509 1.7321 4.2205v10.1049c0 .4159-.2336.6068-.6988.6068h-1.5328c-.5021 0-.7014-.1591-.8012-.5751l-.1993-.7675zm-.6662-5.5036c-.568-.0314-1.2665-.0631-1.9337-.0631h-1.166c-.7673 0-1.4011.096-1.7347.3832-.3675.2882-.4995.8317-.4995 1.5666v.3842c0 .703.1662 1.1518.4995 1.439.2663.2237.7341.3831 1.4683.3831h1.1992c1.5331 0 2.1669-.6703 2.1669-2.142z"/></g><path d="m81.7498 11.4701h3.3002c.5657 0 .6991.1921.6991.8307v1.5677c0 .5438-.1334.7992-.6991.7992h-3.3002v6.9705c0 1.1518.0659 1.5349.4006 1.8875.2982.32.666.4149 1.5658.4149h1.632c.7023 0 .8012.1923.8012.832v1.5667c0 .6079-.0658.7988-.8012.7988h-2.4001c-1.9325 0-3.0647-.2869-3.8986-1.0229-.8651-.7674-1.2659-2.014-1.2659-3.8372v-7.6103h-2.0004c-.4998 0-.666-.1277-.666-.608v-1.4061c0-.512.1323-.6071.5325-.6714l2.1339-.3515v-3.62058c0-.63864.1993-.79918.9334-.79918h2.0996c.7328 0 .9332.16054.9332.79918z"/><g clip-rule="evenodd" fill-rule="evenodd"><path d="m98.415 25.7933c-.6349 1.0557-1.667 1.6309-3.668 1.6309h-1.2322c-1.7347 0-2.7668-.2882-3.6669-1.0229-.9662-.8002-1.4338-2.0469-1.4338-3.5818v-.7349c0-1.7269.4333-2.9421 1.4007-3.7106 1.0324-.8307 2.5994-1.1824 4.8652-1.1824h1.2018c.5976 0 1.2984.0318 1.8652.0646v-.8635c0-.832-.1659-1.3112-.5668-1.6312-.4664-.3514-1.0994-.4474-2.2997-.4474-1.1998 0-2.7679.2237-4.1006.608-.5325.1594-.7315-.0646-.8331-.512l-.2993-1.5032c-.134-.5426-.0671-.7992.5007-.9586 1.2316-.3843 3.2651-.7686 5.0328-.7686 2.3659 0 3.6666.2883 4.7991 1.024 1.1999.7992 1.7339 1.9509 1.7339 4.2205v10.1049c0 .4159-.234.6068-.7.6068h-1.5346c-.4998 0-.6991-.1591-.798-.5751l-.2013-.7675zm-.6682-5.5036c-.5668-.0314-1.2676-.0631-1.9324-.0631h-1.1664c-.7682 0-1.4008.096-1.7344.3832-.3652.2882-.4995.8317-.4995 1.5666v.3842c0 .703.1659 1.1518.4995 1.439.2663.2237.7339.3831 1.4661.3831h1.2003c1.5331 0 2.1669-.6703 2.1669-2.142z"/><path d="m109.847 12.36h.065c.932-.7674 2.2-1.1846 3.999-1.1846 2.068 0 3.568.4803 4.6 1.6321 1.101 1.1823 1.535 3.1649 1.535 5.8833v1.3426c0 2.7818-.568 4.6365-1.768 5.7882-1.232 1.1823-2.933 1.5984-5.499 1.5984-2.134 0-3.634-.192-4.834-.928-1.299-.8307-2.066-1.9824-2.066-4.6365v-15.57085c0-.64087.201-.80027.933-.80027h2.1c.733 0 .935.1594.935.80027zm6.165 6.4539c0-1.8538-.065-2.9084-.632-3.6759-.468-.6408-1.301-.8646-2.467-.8646-1.101 0-1.867.1931-2.333.5763-.434.3518-.732.8626-.732 2.1421v4.3164c0 1.2798.131 1.7918.464 2.2392.468.5438 1.168.7992 2.5.7992 1.234 0 2.035-.2872 2.501-.8634.499-.6072.699-1.439.699-3.6781z"/><path d="m135.351 13.066c1.234 1.3441 1.699 3.3582 1.699 5.7557v.9606c0 2.4618-.465 4.4127-1.699 5.7556-1.101 1.1823-2.834 1.8863-5.301 1.8863-2.466 0-4.199-.704-5.3-1.8863-1.234-1.3429-1.699-3.2938-1.699-5.7556v-.9606c0-2.3975.465-4.4116 1.699-5.7557 1.101-1.2148 2.799-1.8863 5.3-1.8863 2.5 0 4.2.6715 5.301 1.8863zm-3.069 10.4504c.566-.704.733-1.9509.733-3.9015v-.6715c0-1.9509-.167-3.1661-.733-3.869-.468-.5766-1.034-.8635-2.234-.8635s-1.766.2869-2.233.8635c-.567.7029-.733 1.9181-.733 3.869v.6715c0 1.9506.166 3.1975.733 3.9015.467.5437 1.033.8626 2.233.8626s1.766-.3189 2.234-.8626z"/></g><path d="m153.449 26.4339c.199.3514.165.7028-.57.7028h-2.665c-.699 0-.801-.0959-1.066-.6068l-2.4-5.1485c-.232-.4792-.334-.6714-.501-.6714h-.399c-.168 0-.3.2554-.501.6714l-2.465 5.1485c-.235.5108-.367.6068-1.068.6068h-2.665c-.733 0-.768-.3514-.567-.7028l3.898-7.0351c.135-.2238.135-.3832 0-.607l-3.666-6.619c-.199-.3515-.167-.704.567-.704h2.6c.7 0 .801.096 1.067.6068l2.299 4.7642c.201.3843.3.608.501.608h.399c.201 0 .333-.2237.535-.608l2.333-4.7642c.266-.5108.366-.6068 1.065-.6068h2.602c.733 0 .766.3525.565.704l-3.8 6.619c-.134.2238-.134.3832 0 .607z"/></g></svg>