<svg width="104" height="30" fill="none" xmlns="http://www.w3.org/2000/svg"><path opacity=".1" d="M104 26.995A2.998 2.998 0 01101.011 30H3a3 3 0 01-3-3.005V3.016A3.01 3.01 0 013 0h98c1.655 0 3 1.352 3 3.005v23.99z" fill="#fff"/><g clip-path="url(#prefix__clip0_3247_50993)"><path d="M16.342 15.17l-8.084 8.452a2.203 2.203 0 002.1 1.574c.418 0 .787-.106 1.102-.315l9.137-5.198-4.251-4.517-.004.003z" fill="#EA4535"/><path d="M24.532 13.702l-3.939-2.259-4.41 3.886 4.463 4.358 3.94-2.206c.684-.368 1.155-1.102 1.155-1.89a2.358 2.358 0 00-1.209-1.89z" fill="#F9BC15"/><path d="M8.258 7.558c-.053.156-.053.368-.053.578v14.962c0 .209 0 .368.053.577l8.4-8.243-8.4-7.874z" fill="#557EBF"/><path d="M16.395 15.592l4.202-4.149L11.513 6.3c-.315-.21-.734-.316-1.156-.316-.996 0-1.89.685-2.099 1.575l8.137 8.034z" fill="#36A852"/><path d="M33.148 22.792a4.62 4.62 0 01-1.664-1.615 4.568 4.568 0 01-.605-2.321c0-.86.203-1.614.605-2.322a4.675 4.675 0 011.664-1.614 4.473 4.473 0 012.268-.604c.654 0 1.262.1 1.817.352.554.252 1.06.555 1.411.96l-.96.96c-.302-.303-.604-.555-1.01-.708a3.55 3.55 0 00-1.311-.252c-.505 0-1.06.153-1.515.402-.455.249-.856.654-1.159 1.109-.302.505-.455 1.06-.455 1.714 0 .654.153 1.209.455 1.713a3.18 3.18 0 001.16 1.16c.504.252 1.009.401 1.564.401.505 0 .96-.1 1.312-.252a2.89 2.89 0 00.906-.605 1.94 1.94 0 00.455-.654c.103-.252.203-.554.253-.857h-2.926V18.55h4.238c.05.203.05.456.05.708a5.3 5.3 0 01-.253 1.564c-.153.505-.455.96-.807 1.312-.807.857-1.867 1.312-3.228 1.312-.807-.05-1.565-.253-2.269-.654h.004zM42.175 22.944a3.18 3.18 0 01-1.16-1.159 3.684 3.684 0 01-.401-1.664c0-.604.152-1.159.402-1.664a2.56 2.56 0 011.159-1.159 3.18 3.18 0 011.664-.455c.604 0 1.159.153 1.663.455.505.303.857.708 1.16 1.21.252.504.401 1.059.401 1.663 0 .605-.152 1.16-.401 1.664a2.56 2.56 0 01-1.16 1.16 3.18 3.18 0 01-1.663.454c-.605-.05-1.16-.202-1.664-.505zm2.623-1.01c.303-.152.505-.401.708-.707.152-.302.252-.654.252-1.109 0-.455-.1-.807-.252-1.11a1.601 1.601 0 00-.708-.707c-.305-.152-.604-.252-.96-.252-.355 0-.654.1-.96.252-.305.153-.504.402-.707.708a2.38 2.38 0 00-.252 1.109c0 .455.1.807.252 1.11.153.301.402.554.708.707.305.152.604.252.96.252.355 0 .654-.1.96-.252zM49.541 22.944a3.18 3.18 0 01-1.16-1.159 3.684 3.684 0 01-.4-1.664c0-.604.152-1.159.4-1.664a2.56 2.56 0 011.16-1.159 3.18 3.18 0 011.664-.455c.604 0 1.16.153 1.664.455.505.303.857.708 1.159 1.21.252.504.402 1.059.402 1.663 0 .605-.153 1.16-.402 1.664a2.56 2.56 0 01-1.16 1.16 3.18 3.18 0 01-1.663.454c-.605-.05-1.16-.202-1.664-.505zm2.624-1.01c.302-.152.505-.401.707-.707a2.38 2.38 0 00.253-1.109c0-.455-.1-.807-.253-1.11a1.601 1.601 0 00-.707-.707c-.306-.152-.605-.252-.96-.252s-.654.1-.96.252c-.302.153-.505.402-.707.708a2.38 2.38 0 00-.253 1.109c0 .455.1.807.253 1.11.153.301.402.554.707.707.302.152.605.252.96.252s.654-.1.96-.252zM56.552 25.465a2.842 2.842 0 01-1.01-1.209l1.262-.505c.153.303.353.605.605.758.302.202.604.302 1.01.302.554 0 1.01-.153 1.312-.505.302-.352.454-.807.454-1.411v-.555h-.05c-.202.302-.454.505-.806.707a2.778 2.778 0 01-1.16.253c-.504 0-1.01-.153-1.46-.402-.453-.25-.808-.654-1.06-1.11a3.684 3.684 0 01-.402-1.663c0-.605.153-1.21.402-1.664.252-.505.604-.857 1.06-1.16.504-.351 1.009-.454 1.514-.454.402 0 .807.1 1.159.252.352.153.604.402.807.707h.05V17H61.5v5.851c0 .655-.153 1.262-.402 1.714a2.664 2.664 0 01-1.06 1.06c-.455.252-1.01.352-1.614.352a2.907 2.907 0 01-1.866-.505l-.007-.007zm2.823-3.68c.253-.152.505-.401.654-.707.15-.306.253-.654.253-1.06 0-.604-.153-1.109-.505-1.46-.352-.353-.757-.506-1.262-.506-.352 0-.654.1-.907.253a1.757 1.757 0 00-.654.707 2.32 2.32 0 00-.252 1.06c0 .405.1.757.252 1.059.153.302.402.505.654.707.253.153.555.253.907.253.252-.05.555-.1.857-.302l.003-.004zM63.108 14.522h1.312v8.675h-1.312v-8.675zM67.144 22.944c-.505-.302-.857-.654-1.11-1.159a3.684 3.684 0 01-.402-1.664c0-.604.153-1.159.402-1.663.25-.505.605-.907 1.11-1.21.401-.252.906-.401 1.514-.401s1.159.152 1.614.401c.455.253.807.655 1.06 1.11.252.455.352 1.01.352 1.614 0 .1 0 .252-.05.402H66.89c.05.554.252 1.01.605 1.312.352.302.757.455 1.262.455.401 0 .707-.1 1.01-.253.301-.153.504-.402.653-.707l1.11.554c-.303.505-.655.907-1.16 1.21-.454.302-1.009.454-1.663.454-.555 0-1.11-.152-1.564-.455zm3.178-3.58c0-.202-.1-.455-.203-.654-.103-.2-.302-.402-.554-.555-.253-.152-.555-.202-.907-.202-.402 0-.807.152-1.06.402-.252.249-.504.604-.604 1.01h3.328zM75.971 14.522h3.026c.505 0 .96.1 1.411.352.455.203.758.555 1.01.96.252.405.402.857.402 1.361 0 .505-.153.96-.402 1.362-.25.402-.605.708-1.01.96-.455.203-.906.352-1.411.352h-1.664v3.381H75.97v-8.728zm3.026 4.035c.302 0 .555-.05.757-.202.203-.153.402-.303.505-.505.103-.203.153-.402.153-.655 0-.252-.05-.454-.153-.654a1.253 1.253 0 00-.505-.505c-.203-.152-.505-.202-.757-.202h-1.664v2.723h1.664zM82.982 14.522h1.312v8.675h-1.312v-8.675zM86.563 23.147c-.353-.153-.605-.402-.808-.757-.202-.356-.302-.655-.302-1.06 0-.654.253-1.159.708-1.514a3.109 3.109 0 011.816-.555c.352 0 .708.05.96.1.253.05.505.152.708.202v-.302c0-.402-.153-.707-.402-.907-.302-.252-.654-.352-1.11-.352-.302 0-.604.05-.906.203-.302.153-.505.302-.654.555l-.907-.708c.252-.402.604-.654 1.06-.907a3.434 3.434 0 011.46-.302c.907 0 1.565.203 2.07.654.505.452.707 1.06.707 1.867v3.833h-1.312v-.758h-.05c-.202.253-.401.505-.757.655-.302.202-.707.252-1.11.252-.4.05-.806-.05-1.158-.202l-.013.003zm2.321-1.11c.252-.152.455-.351.605-.604.152-.252.202-.555.202-.857-.203-.1-.402-.202-.654-.252-.253-.05-.505-.1-.757-.1-.505 0-.857.1-1.11.302a.909.909 0 00-.352.758c0 .302.1.505.303.707.202.203.504.253.856.253.352.05.605-.05.907-.203v-.003zM94.231 22.845l-2.574-5.852h1.515l1.767 4.188h.05l1.713-4.188h1.462L94.33 25.77h-1.462l1.362-2.926zM32.44 10.806a2.527 2.527 0 01-1.255-2.209c0-.472.113-.9.338-1.292.226-.389.532-.694.917-.917a2.48 2.48 0 011.262-.332c.359 0 .694.063 1.01.19.315.126.574.305.777.537l-.415.416a1.517 1.517 0 00-.591-.439 1.939 1.939 0 00-.774-.153 1.924 1.924 0 00-1.674.95c-.18.303-.27.648-.27 1.043 0 .395.09.74.27 1.043a1.939 1.939 0 001.674.95c.339 0 .598-.05.817-.153.22-.103.408-.236.568-.405.116-.126.212-.279.285-.458a2.05 2.05 0 00.137-.595h-1.8v-.538h2.338c.023.126.033.246.033.352 0 .3-.047.591-.143.874a1.936 1.936 0 01-.455.744c-.448.485-1.043.727-1.787.727-.458 0-.88-.11-1.262-.332v-.003zM36.944 6.166h2.813v.55h-2.242v1.612h2.026v.544h-2.026v1.611h2.242v.551h-2.813V6.166zM41.683 6.717h-1.365v-.551h3.301v.55h-1.358v4.315h-.578V6.717zM45.924 6.166h.572v4.862h-.572V6.166zM48.578 6.717h-1.365v-.551h3.301v.55h-1.358v4.315h-.578V6.717zM53.666 10.799a2.483 2.483 0 01-.897-.92 2.59 2.59 0 01-.325-1.282c0-.468.11-.887.325-1.275a2.447 2.447 0 012.169-1.262c.468 0 .89.112 1.269.338.378.226.68.535.9.924.219.388.328.813.328 1.275 0 .462-.11.893-.325 1.282a2.454 2.454 0 01-2.172 1.259c-.465 0-.89-.113-1.272-.34zm2.232-.465c.292-.17.525-.405.694-.707.17-.303.256-.645.256-1.03s-.087-.727-.256-1.03a1.879 1.879 0 00-1.654-.963 1.878 1.878 0 00-1.65.966 2.04 2.04 0 00-.26 1.027c0 .382.087.724.26 1.026a1.878 1.878 0 001.65.967c.349 0 .668-.087.96-.256zM58.286 6.166h.707l2.438 3.872h.027l-.027-.937V6.166h.578v4.862h-.598l-2.554-4.055h-.026l.026.936v3.119h-.571V6.166z" fill="#fff"/></g><defs><clipPath id="prefix__clip0_3247_50993"><path fill="#fff" transform="translate(6 5)" d="M0 0h92.163v21H0z"/></clipPath></defs></svg>